<?xml version="1.0" standalone="no"?>
<!DOCTYPE svg PUBLIC "-//W3C//DTD SVG 20010904//EN"
 "http://www.w3.org/TR/2001/REC-SVG-20010904/DTD/svg10.dtd">
<svg version="1.0" xmlns="http://www.w3.org/2000/svg"
 width="500.000000pt" height="500.000000pt" viewBox="0 0 500.000000 500.000000"
 preserveAspectRatio="xMidYMid meet">

<g transform="translate(0.000000,500.000000) scale(0.100000,-0.100000)"
fill="#000000" stroke="none">
<path d="M2386 4029 c-313 -33 -605 -210 -778 -470 -68 -101 -109 -190 -146
-313 -25 -84 -27 -105 -27 -271 0 -169 2 -187 31 -300 116 -447 437 -993 942
-1603 47 -56 88 -102 92 -102 14 0 256 298 377 464 28 39 60 82 71 96 29 38
197 290 220 330 11 19 38 67 61 105 135 230 261 516 305 695 52 215 54 385 6
572 -41 162 -135 335 -251 462 -117 129 -313 248 -490 299 -73 22 -270 50
-318 46 -9 -1 -51 -5 -95 -10z m232 -697 c110 -35 194 -112 243 -222 20 -45
24 -72 24 -150 0 -82 -4 -103 -27 -152 -74 -159 -255 -258 -415 -229 -135 26
-238 103 -294 223 -30 65 -33 82 -33 163 -1 77 3 98 26 148 37 79 78 128 141
170 100 66 221 84 335 49z"/>
</g>
</svg>
